<svg xmlns="http://www.w3.org/2000/svg" width="50" height="50" viewBox="0 0 50 50"><defs><style>.cls-1{fill:#fff;}</style></defs><title>back_to_top_image</title><g id="Level_1" data-name="Level 1"><path class="cls-1" d="M25,50A25,25,0,1,1,50,25,25,25,0,0,1,25,50ZM25,3.12A21.88,21.88,0,1,0,46.88,25,21.91,21.91,0,0,0,25,3.12Z"/><path class="cls-1" d="M33.85,19.69l-7.47-6.05h0l0,0h0l-.13-.08-.08,0-.05,0-.14-.06-.09,0-.06,0-.14,0-.09,0h-.3l-.09,0-.13,0-.08,0-.08,0-.13,0-.07,0-.07,0-.13.08h0l-.05,0h0l-7.47,6.05a1.56,1.56,0,0,0,1,2.78,1.6,1.6,0,0,0,1-.35l4.93-4V35.94a1.56,1.56,0,1,0,3.12,0V18.12l4.93,4a1.6,1.6,0,0,0,1,.35,1.56,1.56,0,0,0,1-2.78Z"/></g></svg>