<svg xmlns="http://www.w3.org/2000/svg" width="50" height="50" viewBox="0 0 50 50"><defs><style>.cls-1{fill:#fff;}</style></defs><title>back_to_top_image</title><g id="Level_1" data-name="Level 1"><path class="cls-1" d="M25,50A25,25,0,1,1,50,25,25,25,0,0,1,25,50ZM25,3.12A21.88,21.88,0,1,0,46.88,25,21.91,21.91,0,0,0,25,3.12Z"/><path class="cls-1" d="M33.62,19.92l-7.17-5.81h0l0,0h0L26.27,14l-.08-.05-.05,0L26,13.86l-.08,0-.07,0-.13,0-.09,0h-.29l-.08,0-.13,0-.07,0-.08,0-.13.05-.06,0-.07.05-.12.08h0l-.05,0h0l-7.17,5.81A1.5,1.5,0,0,0,17.16,22a1.47,1.47,0,0,0,1.16.55,1.55,1.55,0,0,0,.95-.33L24,18.41V35.52a1.5,1.5,0,0,0,3,0V18.41l4.73,3.84a1.55,1.55,0,0,0,.95.33A1.47,1.47,0,0,0,33.84,22,1.5,1.5,0,0,0,33.62,19.92Z"/></g></svg>