<svg xmlns="http://www.w3.org/2000/svg" width="597.92" height="598.11" viewBox="0 0 597.92 598.11"><defs><style>.cls-1{fill:#fdcb93;}.cls-2{fill:#5b2148;}.cls-3{fill:#294c9a;}.cls-4{fill:#2b3175;}.cls-5{fill:#7ec3ec;}.cls-6{fill:#f8e993;}.cls-13,.cls-7{font-size:35.04px;}.cls-15,.cls-16,.cls-7,.cls-8{fill:#fff;}.cls-13,.cls-14,.cls-15,.cls-16,.cls-18,.cls-7,.cls-8{font-family:SFProDisplay-Medium, SF Pro Display;}.cls-8{font-size:21.9px;}.cls-9{letter-spacing:-0.13em;}.cls-10{letter-spacing:-0.01em;}.cls-11{letter-spacing:-0.01em;}.cls-12{letter-spacing:0em;}.cls-13,.cls-14,.cls-18{fill:#231f20;}.cls-14,.cls-15{font-size:26.28px;}.cls-16{font-size:17.52px;}.cls-17{letter-spacing:-0.01em;}.cls-18{font-size:23.65px;}.cls-19{letter-spacing:-0.01em;}.cls-20{letter-spacing:-0.01em;}.cls-21{fill:none;}</style></defs><title>development_cycle</title><g id="scratch"><path class="cls-1" d="M330.84,97.11c-11-19.07-22.26-38-33.32-57-1.38-2.38-2.94-3.24-5.58-3-12.45,1.29-25.08,1.59-37.35,3.86Q145.72,61.12,82.14,152c-1.46,2.09-2.81,4.26-4.76,7.24H83c20.43-.12,40.86-.08,61.28-.46,4.28-.08,6.4,1.32,8.4,4.95C162.81,182,173.2,200,183.49,218.17c.89,1.55,1.84,3.07,2.79,4.65a8.63,8.63,0,0,0,1-.89c25.87-36,61.08-55.21,105.14-58.64a6.29,6.29,0,0,0,4.25-2.71q17.22-28.94,34-58.11A6.36,6.36,0,0,0,330.84,97.11Z"/><path class="cls-2" d="M522.13,161.6A263,263,0,0,0,417.86,65.76,262.79,262.79,0,0,0,332,39.15c-7.27-1-14.62-1.36-22.83-2.09,1.55,2.76,2.57,4.65,3.66,6.5q15.48,26.4,31,52.75c1.41,2.38,1.6,4.17.06,6.73-8.83,14.75-17.42,29.64-26.1,44.49l-9.38,16.05c4.3.55,7.88.88,11.42,1.48q58.91,10.06,92.45,59.56c1.65,2.43,3.27,3.55,6.31,3.54q32.85-.06,65.7.29c3,0,4.71-.89,6.18-3.52q15.81-28.22,31.91-56.27C523.9,166,523.73,164.17,522.13,161.6Z"/><path class="cls-3" d="M559.33,270.81a262.27,262.27,0,0,0-23.77-84.43c-1.37-2.92-3-5.73-4.75-9.11-1,1.57-1.58,2.39-2.07,3.26-10.59,18.62-21.23,37.2-31.67,55.9-1.59,2.84-3.42,3.81-6.57,3.7-8.46-.28-16.93-.35-25.39-.38-14.42-.05-28.84,0-43.9,0,.76,1.81,1.25,3,1.77,4.17a135.48,135.48,0,0,1-2.82,116.2c-1.2,2.38-1.57,4.36-.12,6.89,11.12,19.33,22.06,38.76,33.24,58.06a6.37,6.37,0,0,0,4.62,2.69c22.18-.06,44.37-.37,66.56-.55,2.25,0,3.5-.55,4.68-2.77C554.87,376.28,565.05,325.15,559.33,270.81Z"/><path class="cls-4" d="M515.32,439.05c-21.17.1-42.34.13-63.5.37-2.9,0-4.37-.87-5.77-3.39-8.06-14.53-16.32-28.94-24.53-43.39-3.25-5.71-6.54-11.41-9.9-17.27-.66.72-1,1-1.24,1.37-25.94,35.72-61,55-105,58.16a6.31,6.31,0,0,0-4.19,2.81Q283.92,466.84,267,496.19a5.41,5.41,0,0,0,.05,4.57c11.1,19.18,22.4,38.25,33.54,57.41,1.27,2.19,2.61,3.11,5.14,2.84,12.33-1.27,24.82-1.55,37-3.74Q443,539.12,506.38,458.94c4.82-6.13,9.13-12.66,14.3-19.89Z"/><path class="cls-5" d="M254.44,502.84c-2-3.35-1.91-5.69.1-9,8.62-14.2,16.91-28.61,25.31-42.94l9.43-16.1c-1.81-.29-3.07-.53-4.34-.68s-2.63-.14-3.92-.34c-40.65-6.33-72.72-26.29-95.73-60.49a6.31,6.31,0,0,0-6-3.19q-32.85.06-65.7-.27c-3.07,0-4.62,1-6.07,3.56q-15.81,28.23-31.94,56.28c-1.44,2.5-1.39,4.18.14,6.6q54.43,86.13,152.17,114.84a245.81,245.81,0,0,0,60.49,9.67c-.65-1.31-1.09-2.37-1.67-3.35C276,539.21,265.35,521,254.44,502.84Z"/><path class="cls-6" d="M177.62,231q-16.34-28.46-32.41-57.07c-1.47-2.61-3.06-3.67-6.15-3.62-21,.37-42,.65-63,.63-4.19,0-6.47,1.2-8.44,5-23.16,44.53-33.35,91.71-29.86,141.87a260.14,260.14,0,0,0,17.91,78.47c3.3,8.3,7.26,16.34,11.3,25.36,11.49-20.25,22.45-39.35,33.14-58.59,2-3.59,4-5.18,8.39-5.08,20.87.47,41.74.53,62.61.73h5.53c-.53-1.55-.79-2.5-1.18-3.4Q149.63,296,178,237.85A6.48,6.48,0,0,0,177.62,231Z"/><text class="cls-7" transform="translate(357.98 459.45)">5</text><text class="cls-8" transform="translate(324.63 491.87)"><tspan class="cls-9">T</tspan><tspan x="10.14" y="0">esting &amp;</tspan><tspan x="-7.05" y="26.28">In</tspan><tspan class="cls-10" x="10.11" y="26.28">t</tspan><tspan x="16.87" y="26.28">eg</tspan><tspan class="cls-11" x="40.8" y="26.28">r</tspan><tspan class="cls-12" x="47.76" y="26.28">ation</tspan></text><text class="cls-13" transform="translate(95.91 259.15)">1</text><text class="cls-14" transform="translate(54.72 295.94)">Planning</text><text class="cls-13" transform="translate(211.16 105.76)">2</text><text class="cls-14" transform="translate(173.7 142.55)">Analysis</text><text class="cls-7" transform="translate(398.18 124.16)">3</text><text class="cls-15" transform="translate(369.05 160.95)">Design</text><text class="cls-7" transform="translate(480.26 320.96)">4</text><text class="cls-16" transform="translate(432.17 357.76)">Implemen<tspan class="cls-17" x="74.84" y="0">t</tspan><tspan x="80.33" y="0">ation</tspan></text><text class="cls-13" transform="translate(168.48 440.18)">6</text><text class="cls-18" transform="translate(113.06 476.97)"><tspan class="cls-19">M</tspan><tspan x="19.62" y="0">ain</tspan><tspan class="cls-20" x="49.88" y="0">t</tspan><tspan x="57.18" y="0">enance</tspan></text><rect class="cls-21" width="597.92" height="598.11"/></g></svg>