<svg xmlns="http://www.w3.org/2000/svg" xmlns:xlink="http://www.w3.org/1999/xlink" width="1280" height="950" viewBox="0 0 1280 950"><defs><style>.cls-1,.cls-2{fill:red;}.cls-2{font-size:55.5px;font-family:SFProDisplay-Regular, SF Pro Display;}.cls-3{letter-spacing:-0.02em;}.cls-4{letter-spacing:-0.01em;}</style></defs><title>esb_group_navigation</title><g id="scratch"><image width="1280" height="950" xlink:href="../../../../../Library/Mobile Documents/com~apple~CloudDocs/portfolio_PROJECT/WEBSITE/assets/pictures/esb_group_navigation.png"/><path class="cls-1" d="M118.49,382.66V233.27c0-85-7.7-151.62-25.2-151.62h-4.1l-6-21.42h5.47c27.18,0,39.47,51.31,39.47,165.49V356c0,81.49,7,142.57,27.06,142.57v12.15c-20.11,0-27.06,61.08-27.06,143.07V774.51C128.13,888.2,116,939,88.66,939H83.19l6-21.42h4.1c17.75,0,25.2-65.1,25.2-150.11V627.13c0-72.94,8.69-114.17,27.19-121.71v-1C127.18,496.83,118.49,455.6,118.49,382.66Z"/><text class="cls-2" transform="translate(187 520.49)">G<tspan class="cls-3" x="39.21" y="0">r</tspan><tspan x="54.96" y="0">oup </tspan><tspan class="cls-4" x="155.53" y="0">N</tspan><tspan x="193.52" y="0">avigation Bar</tspan></text></g></svg>