<svg xmlns="http://www.w3.org/2000/svg" xmlns:xlink="http://www.w3.org/1999/xlink" width="1280" height="950" viewBox="0 0 1280 950"><defs><style>.cls-1,.cls-2{fill:red;}.cls-2{font-size:55.5px;font-family:SFProDisplay-Regular, SF Pro Display;}.cls-3{letter-spacing:-0.02em;}.cls-4{letter-spacing:-0.01em;}</style></defs><title>esb_group_navigation</title><g id="scratch"><image width="1280" height="950" xlink:href="../../../../../Library/Mobile Documents/com~apple~CloudDocs/portfolio_PROJECT/WEBSITE/assets/pictures/esb_group_navigation.png"/><path class="cls-1" d="M119,382.66V233.27S110.79,81.65,93.29,81h-4.1l-6-21h5.42C115.74,60,128,111.32,128,225.54V355.85c0,81.51,6.94,142.61,27,142.61v12.15c-20.06,0-27,61.09-27,143.1V774.47C128,888.18,115.86,939,88.61,939H83.19l6-21h4.1c17.75-.42,25.2-65.52,25.71-150.53V627.13c-.51-72.94,8.18-114.17,27-121.71v-1C127.18,496.83,119,382.66,119,382.66Z"/><text class="cls-2" transform="translate(187 520.49)">G<tspan class="cls-3" x="39.21" y="0">r</tspan><tspan x="54.96" y="0">oup </tspan><tspan class="cls-4" x="155.53" y="0">N</tspan><tspan x="193.52" y="0">avigation Bar</tspan></text></g></svg>