<svg xmlns="http://www.w3.org/2000/svg" width="30" height="30" viewBox="0 0 30 30"><defs><style>.cls-1{fill:#b8b8b8;fill-rule:evenodd;}.cls-2{fill:none;}</style></defs><title>facebook icon gray</title><g id="Level_1" data-name="Level 1"><path class="cls-1" d="M3.75,0h22.5A3.75,3.75,0,0,1,30,3.75v22.5A3.75,3.75,0,0,1,26.25,30H3.75A3.75,3.75,0,0,1,0,26.25V3.75A3.75,3.75,0,0,1,3.75,0ZM24.33,9.37l0-3.71c-1.32,0-.93-.07-2.31-.07a6.08,6.08,0,0,0-3,.65,3.12,3.12,0,0,0-1.6,1.63,6.39,6.39,0,0,0-.49,2.89v.49H15L15,14.92h1.9v9.44H20.6V14.92H24l.46-3.67h-3.8s-.31-1.12.28-1.69C21.26,9.26,24.33,9.37,24.33,9.37Z"/><rect class="cls-2" width="30" height="30"/></g></svg>