<svg xmlns="http://www.w3.org/2000/svg" width="30" height="30" viewBox="0 0 30 30"><defs><style>.cls-1{fill:#fff;fill-rule:evenodd;}.cls-2{fill:none;}</style></defs><title>facebook icon white</title><g id="Level_1" data-name="Level 1"><path class="cls-1" d="M3.75,0h22.5A3.75,3.75,0,0,1,30,3.75v22.5A3.75,3.75,0,0,1,26.25,30H3.75A3.75,3.75,0,0,1,0,26.25V3.75A3.75,3.75,0,0,1,3.75,0ZM24,9l0-4c-1.25,0-.88-.07-2.18-.07a5.06,5.06,0,0,0-2.82.7,3.27,3.27,0,0,0-1.52,1.78A7.93,7.93,0,0,0,17,10.48V11H15l-.06,4H17v9h4V15h2.71l.43-4H20.55a2.39,2.39,0,0,1,.27-1.84C21.1,8.84,24,9,24,9Z"/><rect class="cls-2" width="30" height="30"/></g></svg>