<svg xmlns="http://www.w3.org/2000/svg" width="90.92" height="90" viewBox="0 0 90.92 90"><defs><style>.cls-1{fill:#020201;}.cls-2{fill:#060503;}.cls-3{fill:#070505;}.cls-4{fill:#e0b200;}.cls-5{fill:#fefefe;}.cls-6{fill:#fdfefe;}.cls-7{fill:#dfb200;}.cls-8{fill:#fdfdfd;}.cls-9{fill:#dfb100;}.cls-10{fill:#fbfcfc;}.cls-11{fill:#ddb000;}.cls-12{fill:#fafafa;}.cls-13{fill:#dcaf00;}.cls-14{fill:#f9fafa;}.cls-15{fill:#fbfbfb;}.cls-16{fill:#342602;}.cls-17{fill:#b39102;}.cls-18{fill:#5a4703;}.cls-19{fill:#997b03;}</style></defs><title>ga_tech_icon</title><g id="scratch"><path class="cls-1" d="M32.07,16.1a1,1,0,0,0,.93-.27,12.54,12.54,0,0,1,5.58-2.36c.46-.06.93-.09,1.46-.14l-.43-.45a45.45,45.45,0,0,0-13.8-9.43c-1-.43-2-.76-3-1.16a16.6,16.6,0,0,1-1.59-.77c-.24-.13-.5-.33-.45-.67s.35-.38.58-.51A3.37,3.37,0,0,1,24,.2a15.07,15.07,0,0,1,3.89,1.89,46.8,46.8,0,0,1,6.05,4.72c2.23,2,4.35,4.11,6.4,6.28a1,1,0,0,0,.7.35,6.79,6.79,0,0,1,2.83,1,1.12,1.12,0,0,0,.56.18,20.9,20.9,0,0,1,11,3.36l.51.33c.41-1.05.79-2.07,1.19-3.08a47,47,0,0,1,3.3-6.86A13,13,0,0,1,62.9,5.16a4.85,4.85,0,0,1,1.35-.84,3.23,3.23,0,0,1,2-.09,1.91,1.91,0,0,1,1.17.95,5.84,5.84,0,0,1,.73,2,23.89,23.89,0,0,1,.3,5.54c0,.73-.08,1.46-.12,2.2,0,.12,0,.25,0,.43.14-.1.24-.16.33-.24a46.05,46.05,0,0,1,8.61-5.46A31.4,31.4,0,0,1,85.92,6.9c.48-.07,1-.13,1.45-.18a1.25,1.25,0,0,1,.51,0,8.28,8.28,0,0,1,1.3.44A3.09,3.09,0,0,1,90.79,11a8.36,8.36,0,0,1-1.2,2.52A23.46,23.46,0,0,1,86.71,17,60.39,60.39,0,0,1,82,21.22l-.4.33.56,0a3.91,3.91,0,0,1,.68,0,2.46,2.46,0,0,1,2.26,2.27,3.91,3.91,0,0,1-.6,2.51,9.39,9.39,0,0,1-1.93,2.24l-.44.39c.35.33.68.67,1,1a.87.87,0,0,0,.44.1,14.07,14.07,0,0,1,3.63.71,5.34,5.34,0,0,1,2.33,1.49,3,3,0,0,1,.78,1.87,21.4,21.4,0,0,1,0,3.49,9.61,9.61,0,0,1-.78,3.12A4.27,4.27,0,0,1,88,42.49a2.71,2.71,0,0,1-3.23-.35,4.91,4.91,0,0,1-.43-.48c-.13-.16-.22-.34-.36-.54l-.37.16a7.34,7.34,0,0,1-3,.7,2.78,2.78,0,0,1-2.07-.82,1.46,1.46,0,0,0-.34-.26,2.11,2.11,0,0,1-.84-2.64,7.06,7.06,0,0,1,.52-1,4.72,4.72,0,0,1,.27-.4c-2.44.38-4.28-.68-6-2.18.19-.31.19-.31,0-.79l-.85.25-.31.88.22.3a9.14,9.14,0,0,1,1.4,2.37,1,1,0,0,0,.42.51,8.82,8.82,0,0,1,3.56,4.57,1.16,1.16,0,0,0,.49.62A10.16,10.16,0,0,1,81.15,48a8.9,8.9,0,0,1-.49,8.12l-.18.3a15.17,15.17,0,0,1,.67,1.66,6.05,6.05,0,0,1-.8,5,9.92,9.92,0,0,1-3.65,3.4,2.06,2.06,0,0,0-.88.94,14,14,0,0,1-9.1,7.29c-.52.15-1.07.19-1.61.29a.69.69,0,0,0-.37.16,42.27,42.27,0,0,1-6,4.74c-2,1.32-4,2.54-6,3.69l-.34.18-.6-.77c.18-.22.36-.43.55-.64a37.29,37.29,0,0,0,3.73-5,18.31,18.31,0,0,0,2.13-4.6.55.55,0,0,0-.08-.55A7.1,7.1,0,0,1,56.8,67.1a10.9,10.9,0,0,1,.75-2.87c-.28-.66-.6-1.25-.79-1.87a6,6,0,0,1,.79-5.07c.35-.55.77-1,1.17-1.58a9.14,9.14,0,0,1-.91-5.52h-1A63.75,63.75,0,0,1,50.17,50a33.53,33.53,0,0,1-7.57-1.37c-.3-.09-.6-.2-.94-.32a8.17,8.17,0,0,1-.92,4.14,10.8,10.8,0,0,1-2.62,3.36c.07.21.17.42.23.64a2.38,2.38,0,0,1-.74,2.46A5,5,0,0,1,33.72,60a1.45,1.45,0,0,0-.51,0,5.33,5.33,0,0,1-5.69-3.33,5.94,5.94,0,0,1,1.76-7,4.92,4.92,0,0,1,2.48-1,1.74,1.74,0,0,0,.76-.27,17.15,17.15,0,0,1,5.38-2.22l.21,0c-.13-.29-.13-.29-.38-.2-.91.29-1.82.61-2.74.88a16.71,16.71,0,0,1-3.91.63A11,11,0,0,1,27.17,47a.75.75,0,0,0-.71.09,22.46,22.46,0,0,1-4.7,2.22,8.82,8.82,0,0,1-3.3.48,5.46,5.46,0,0,1-.69-.1,1.76,1.76,0,0,1-1.14-.76,17.82,17.82,0,0,1-2.54-5.2,13.63,13.63,0,0,1,.24-8.19,20.29,20.29,0,0,1,3.6-6.33,1.16,1.16,0,0,0,.27-.78,10.42,10.42,0,0,1,1.63-5.72A13.8,13.8,0,0,1,28,16.34c.24-.07.48-.1.72-.15l.41-.08h0l.76-.09h1.56ZM22.31,26.88v.26a.61.61,0,0,1-.07.1,21.61,21.61,0,0,0-3.47,6.66,31,31,0,0,0-1.31,6.4,39.71,39.71,0,0,0-.12,5.56c0,.77.14,1.55.19,2.32,0,.32.19.44.47.51a4.83,4.83,0,0,0,1.93,0,14.86,14.86,0,0,0,5.95-2.53c2.59-1.85,5.12-3.8,7.68-5.71,1.31-1,2.65-1.94,3.92-3,2.49-2,5-4.08,7.4-6.14s5.2-4.19,7.61-6.51l.21-.16a1.09,1.09,0,0,1,.17.22c.13.28.27.57.38.86a10.44,10.44,0,0,1,.54,2.7,3.08,3.08,0,0,1-.85,2.48A35,35,0,0,1,47,35.89a21.82,21.82,0,0,1-7.21,3.2c-.34.08-.67.15-1,.25-1,.3-2.07.61-3.1.93a2,2,0,0,0-.61.3c-2.37,1.75-4.73,3.52-7.09,5.28l-.26.24a9.07,9.07,0,0,0,2.21.38,17.16,17.16,0,0,0,5.85-.9,38.8,38.8,0,0,0,8.31-3.94A87.61,87.61,0,0,0,57.3,31.56a4.78,4.78,0,0,0,1.24-1.78,8.84,8.84,0,0,0,.68-4.39,8.62,8.62,0,0,0-3.69-6.13,19.47,19.47,0,0,0-9.28-3.56c-.26,0-.53,0-.78,0,0,.07,0,.08,0,.09l0,.08a7.29,7.29,0,0,1,1.29,5.92A11.86,11.86,0,0,1,44.39,27a13.77,13.77,0,0,1-6.71,4.85,9.56,9.56,0,0,1-4.89.4A6.41,6.41,0,0,1,27.49,26a10.21,10.21,0,0,1,.72-4.09l.18-.47-.24.13A46.12,46.12,0,0,0,21.33,27a26.49,26.49,0,0,0-4.73,6,15,15,0,0,0-2,5.8,12.65,12.65,0,0,0,1.08,6.56c.17.38.37.76.57,1.18,0-.08.06-.1.06-.12,0-.17,0-.35,0-.52a29,29,0,0,1,.35-7,24.64,24.64,0,0,1,3.42-9.1A19.18,19.18,0,0,1,22.31,26.88Zm54.56-3.52.31-.25c1.37-1.08,2.75-2.13,4.1-3.23a45.76,45.76,0,0,0,5.62-5.34,14.09,14.09,0,0,0,2-2.8,4,4,0,0,0,.51-1.64A1.39,1.39,0,0,0,89.06,9a2.18,2.18,0,0,0-1.82-.71,27.43,27.43,0,0,0-5.66,1.27,37.43,37.43,0,0,0-9.24,4.75,60.24,60.24,0,0,0-11.87,11,.78.78,0,0,0-.2.58A8.6,8.6,0,0,1,60,28.31c-.06.26-.12.52-.17.76.66,0,1.31,0,2,0,.2,0,.4.05.6.07s.42.05.63.05.45-.05.68-.06h1.36c.27-.48.52-1,.82-1.45a6.72,6.72,0,0,1,5.63-3.23,11.9,11.9,0,0,1,4.78.92,20.7,20.7,0,0,1,2.4,1.33c.73.4,1.43.84,2.17,1.27a9.42,9.42,0,0,0,2.19-2.22,4.65,4.65,0,0,0,.46-.92,1.61,1.61,0,0,0-.05-1.34.77.77,0,0,0-.83-.49c-.18,0-.37,0-.55.05a13.19,13.19,0,0,0-2.6.78c-.62.24-1.23.52-1.87.79ZM59.29,56.71a6.53,6.53,0,0,0-1.59,2.81,4.91,4.91,0,0,0-.13,1.58,5.44,5.44,0,0,0,1.63,3.38,9.59,9.59,0,0,0,3.91,2.36,16.25,16.25,0,0,0,8.93.39,13.37,13.37,0,0,0,5.37-2.43A7.92,7.92,0,0,0,79.81,62a5,5,0,0,0,.13-4.22,2.19,2.19,0,0,0-.17-.29,12.65,12.65,0,0,1-10.4,4.44A12.36,12.36,0,0,1,59.29,56.71Zm.59-33.13.27-.29c.8-.87,1.56-1.77,2.4-2.6,1.25-1.24,2.55-2.44,3.83-3.66.13-.13.27-.23.29-.45A49.86,49.86,0,0,0,66.92,10a19.79,19.79,0,0,0-.27-2.44,8.36,8.36,0,0,0-.46-1.47.6.6,0,0,0-.51-.39A1.51,1.51,0,0,0,64.37,6a9.69,9.69,0,0,0-1.21,1.1,15.22,15.22,0,0,0-1.91,2.8,50.53,50.53,0,0,0-3,6.61c-.37.93-.71,1.88-1.06,2.82A10.63,10.63,0,0,1,59.88,23.58Zm13.43,16a8.24,8.24,0,0,1-.22,2.24,10.72,10.72,0,0,1-4.13,6,8.8,8.8,0,0,1-3.66,1.64c-.36.07-.72.09-1.1.14l.1.25-3.82.27c.09.17.15.31.23.44a8,8,0,0,0,9,3.73,8.72,8.72,0,0,0,6.48-9.23,8.17,8.17,0,0,0-2.4-5C73.64,39.87,73.47,39.74,73.31,39.6Zm-7.59-9.2a6.7,6.7,0,0,0-2.63-.15,3,3,0,0,0-2.69,2.52A6.48,6.48,0,0,0,60.3,34a11.64,11.64,0,0,0,.47,2.93,3.94,3.94,0,0,0,1.62,2.16,1.39,1.39,0,0,0,1.55.07,3.17,3.17,0,0,0,.85-.64c.43-.5.81-1,1.2-1.57.13-.18.24-.39.32-.51.61-.09,1.16-.13,1.68-.26a2.94,2.94,0,0,0,2.44-2.43,5.77,5.77,0,0,0,0-1.71A17.23,17.23,0,0,0,70,30.18a7.45,7.45,0,0,0,2,1.46c0-.27,0-.49,0-.72,0-.61.06-1.23.16-1.84a5.05,5.05,0,0,1,1.73-3.19s0-.06.07-.11l-.17-.07a8.47,8.47,0,0,0-2.56-.19A5.57,5.57,0,0,0,68,26.82a6.94,6.94,0,0,0-1.7,2.25C66.12,29.49,65.94,29.93,65.72,30.4Zm18.82,9.23.1.22A8.78,8.78,0,0,0,85.21,41a1.68,1.68,0,0,0,2.64.33,3.74,3.74,0,0,0,1-1.54A8.55,8.55,0,0,0,89.37,37c0-.85,0-1.7,0-2.55a2.42,2.42,0,0,0-.92-2,5.13,5.13,0,0,0-1.67-.87,15.42,15.42,0,0,0-4-.66.4.4,0,0,0-.35.2c-.29.43-.6.84-.87,1.29a2.4,2.4,0,0,0-.3.74c-.2.84-.37,1.69-.54,2.53a1.1,1.1,0,0,1-.36.61,13.28,13.28,0,0,0-1.27,1.22,4,4,0,0,0-.64,1,1.08,1.08,0,0,0,.51,1.5,1.2,1.2,0,0,1,.34.25,1.92,1.92,0,0,0,1.69.58,7.91,7.91,0,0,0,3.12-1.05Zm-3-9.53-.21-.18a34.42,34.42,0,0,0-5.72-3.41.45.45,0,0,0-.45,0,3.23,3.23,0,0,0-1.45,1.64,5.87,5.87,0,0,0-.43,1.93A13.76,13.76,0,0,0,73.66,34a.6.6,0,0,0,.27.42,16.86,16.86,0,0,0,1.48.87,4.17,4.17,0,0,0,3.27.13.42.42,0,0,0,.31-.35,7.32,7.32,0,0,1,1-2.39C80.46,31.83,81,31,81.58,30.1Zm-50,27.53a1.25,1.25,0,0,0,.76.94,4.81,4.81,0,0,0,2.5.5,3.4,3.4,0,0,0,2.1-.88,1.44,1.44,0,0,0,.22-2,10.41,10.41,0,0,0-.83-.93L36,54.93l.57-.08a7.08,7.08,0,0,0,.8-.16.9.9,0,0,0,.7-1.08,3,3,0,0,0-.27-.8,5.6,5.6,0,0,0-.28-.54,2.9,2.9,0,0,0,1.35-.62,1.54,1.54,0,0,0,.39-1.35l-.18,0-2.06-.16c-.82-.06-1.63-.13-2.45-.16a3,3,0,0,0-1.5.3,1.33,1.33,0,0,0-.79,1.55c.13.62.32,1.22.49,1.83A4.69,4.69,0,0,1,33,55.2a2.6,2.6,0,0,1-1.17,2.19Zm.39-7.85a4.5,4.5,0,0,0-3.8,4.49c-.06,1.87,1.24,4,2.7,4.33-.09-.22-.19-.44-.26-.67a1,1,0,0,1,.37-1.14,2.27,2.27,0,0,1,.32-.22A1.45,1.45,0,0,0,32,55.4a3.85,3.85,0,0,0,0-1.07c-.14-.61-.34-1.21-.51-1.82a2.66,2.66,0,0,1,.5-2.67S31.92,49.82,31.93,49.78ZM63.42,75.06a7.77,7.77,0,0,1-4.35-1.69,27.18,27.18,0,0,1-4.51,8A55.7,55.7,0,0,0,63.42,75.06ZM48.18,30l-3.76,3.14c.27.87.48,1.74.78,2.61A27.61,27.61,0,0,0,49,33.08Zm1.7,2.33c.15-.13.26-.21.36-.31l1.29-1.2a2.28,2.28,0,0,0,.65-1,6.4,6.4,0,0,0,.2-3.22.86.86,0,0,0-.05-.15l-3.24,2.82ZM40.35,47c-1.69-.24-5.49,1.07-6.46,1.9l.5,0c.59,0,1.18,0,1.76.07a27.51,27.51,0,0,0,3.27.24,5.31,5.31,0,0,1,.74.11l.22,1.15A5.26,5.26,0,0,0,40.35,47Zm3.24-13.13c-.55.34-5.05,4.12-5.2,4.36a16.62,16.62,0,0,0,5.87-2ZM41.5,16.77a1.65,1.65,0,0,0-3.3,0,1.65,1.65,0,0,0,3.3,0ZM39,52.87l.16.38.45-.72,0,0Z"/><path class="cls-2" d="M22.33,77.89H19.05v-8H48.29c0,2.66,0,5.3-.07,8h-4.6V75.34H37v9.21l1.05,0h2.17V90H27.7V84.58c.57,0,1.14,0,1.7,0h1.7V75.34H29.69V84H24.4V82.86a3,3,0,0,0-.3.14,14.65,14.65,0,0,1-6.49,2.24,18.37,18.37,0,0,1-9.33-1.31A14.27,14.27,0,0,1,2,79a10.34,10.34,0,0,1-2-6.82,11,11,0,0,1,3.66-7.39,15.87,15.87,0,0,1,7.59-3.94A18.08,18.08,0,0,1,20.2,61,12.82,12.82,0,0,1,24,62.79l.55.37V60.47h5.29v8.78c-1.73,0-3.48,0-5.27,0,.09-.52-.27-.72-.59-1a13.84,13.84,0,0,0-5.37-2.24,11.42,11.42,0,0,0-6.39.54,8.59,8.59,0,0,0-3.63,2.48,5.36,5.36,0,0,0,0,7.14,8.25,8.25,0,0,0,3.48,2.46,11.76,11.76,0,0,0,9.46-.28c.25-.11.48-.25.72-.38l.11,0Zm3.08-3.56c0,.66,0,1.3,0,1.93a.77.77,0,0,1-.21.58A8.62,8.62,0,0,1,22.59,79a12.68,12.68,0,0,1-10.87.63,9.27,9.27,0,0,1-3.87-2.72,6.45,6.45,0,0,1-1.59-3.79,6.37,6.37,0,0,1,1.87-5,11,11,0,0,1,7.47-3.28,13.4,13.4,0,0,1,5.87,1,11.76,11.76,0,0,1,3.88,2.27.58.58,0,0,0,.43.14h2.81a2.19,2.19,0,0,0,.27,0V61.5H25.61v3.86c-.22-.18-.36-.32-.52-.44-.63-.49-1.24-1-1.91-1.46a13.31,13.31,0,0,0-6.77-2,17.58,17.58,0,0,0-7.15,1.1,13.61,13.61,0,0,0-6.13,4.39,9.48,9.48,0,0,0,0,12,13.6,13.6,0,0,0,6.11,4.34A17.54,17.54,0,0,0,17,84.29,14.62,14.62,0,0,0,22.09,83,13.55,13.55,0,0,0,25,81.07c.11-.09.2-.23.42-.21V83h3.26V74.3c1.18,0,2.3,0,3.43,0V85.57c-1.15,0-2.27,0-3.39,0V89H39.25V85.58h-3.2V74.33h8.56c0,.86,0,1.69,0,2.51H47.2l.07-5.9c-.52-.1-26.89-.08-27.2,0v5.91h2.56V74.33Zm-1.77,2.61c.73-.5.9-.91.69-1.6h-.69Z"/><path class="cls-3" d="M31.45,16H29.92l.74-.1-.06-.09a57.7,57.7,0,0,0-9.85-5.38,34.32,34.32,0,0,0-7.57-2.24,18.43,18.43,0,0,0-5-.2A8.15,8.15,0,0,0,7,8.23a2.06,2.06,0,0,1-1.34-.14c-.43-.19-.52-.48-.24-.86A3.85,3.85,0,0,1,6,6.63a.72.72,0,0,1,.36-.1,36.15,36.15,0,0,1,6.24.31,32.8,32.8,0,0,1,14,5.47,25.82,25.82,0,0,1,4.09,3.43C30.91,16,31.19,15.94,31.45,16Z"/><path class="cls-3" d="M29.91,16l-.76.09Z"/><path class="cls-3" d="M32.07,16.1l-.6-.08Z"/><path class="cls-3" d="M29.13,16.11l-.41.08Z"/><path class="cls-4" d="M22.31,26.88a19.18,19.18,0,0,0-2.19,2.88,24.64,24.64,0,0,0-3.42,9.1,29,29,0,0,0-.35,7c0,.17,0,.35,0,.52,0,0,0,0-.06.12-.2-.42-.4-.8-.57-1.18a12.65,12.65,0,0,1-1.08-6.56,15,15,0,0,1,2-5.8,26.49,26.49,0,0,1,4.73-6,46.12,46.12,0,0,1,6.82-5.4l.24-.13-.18.47A10.21,10.21,0,0,0,27.49,26a6.41,6.41,0,0,0,5.3,6.25,9.56,9.56,0,0,0,4.89-.4A13.77,13.77,0,0,0,44.39,27a11.86,11.86,0,0,0,2.38-5.25,7.29,7.29,0,0,0-1.29-5.92l0-.08s0,0,0-.09c.25,0,.52,0,.78,0a19.47,19.47,0,0,1,9.28,3.56,8.62,8.62,0,0,1,3.69,6.13,8.84,8.84,0,0,1-.68,4.39,4.78,4.78,0,0,1-1.24,1.78A87.61,87.61,0,0,1,44.13,41.63a38.8,38.8,0,0,1-8.31,3.94,17.16,17.16,0,0,1-5.85.9,9.07,9.07,0,0,1-2.21-.38l.26-.24c2.36-1.76,4.72-3.53,7.09-5.28a2,2,0,0,1,.61-.3c1-.32,2.06-.63,3.1-.93.33-.1.66-.17,1-.25A21.82,21.82,0,0,0,47,35.89a35,35,0,0,0,5.91-4.95,3.08,3.08,0,0,0,.85-2.48,10.44,10.44,0,0,0-.54-2.7c-.11-.29-.25-.58-.38-.86a1.09,1.09,0,0,0-.17-.22l-.21.16c-2.41,2.32-5.05,4.36-7.61,6.51s-4.91,4.12-7.4,6.14c-1.27,1-2.61,2-3.92,3-2.56,1.91-5.09,3.86-7.68,5.71a14.86,14.86,0,0,1-5.95,2.53,4.83,4.83,0,0,1-1.93,0c-.28-.07-.45-.19-.47-.51-.05-.77-.16-1.55-.19-2.32a39.71,39.71,0,0,1,.12-5.56,31,31,0,0,1,1.31-6.4,21.61,21.61,0,0,1,3.47-6.66.61.61,0,0,0,.07-.1l1-1.11,1.19-1.14a1.48,1.48,0,0,0,.49-.44l-.07-.06-.49.43-1.22,1.11Z"/><path class="cls-5" d="M76.87,23.36l.77,1.26c.64-.27,1.25-.55,1.87-.79a13.19,13.19,0,0,1,2.6-.78c.18,0,.37,0,.55-.05a.77.77,0,0,1,.83.49,1.61,1.61,0,0,1,.05,1.34,4.65,4.65,0,0,1-.46.92A9.42,9.42,0,0,1,80.89,28c-.74-.43-1.44-.87-2.17-1.27a20.7,20.7,0,0,0-2.4-1.33,11.9,11.9,0,0,0-4.78-.92,6.72,6.72,0,0,0-5.63,3.23c-.3.47-.55,1-.82,1.45H63.73c-.23,0-.45.06-.68.06s-.42,0-.63-.05-.4-.07-.6-.07c-.64,0-1.29,0-2,0,.05-.24.11-.5.17-.76a8.6,8.6,0,0,0,.23-2.48.78.78,0,0,1,.2-.58,60.24,60.24,0,0,1,11.87-11,37.43,37.43,0,0,1,9.24-4.75,27.43,27.43,0,0,1,5.66-1.27A2.18,2.18,0,0,1,89.06,9a1.39,1.39,0,0,1,.34,1.12,4,4,0,0,1-.51,1.64,14.09,14.09,0,0,1-2,2.8,45.76,45.76,0,0,1-5.62,5.34c-1.35,1.1-2.73,2.15-4.1,3.23Z"/><path class="cls-4" d="M59.29,56.71a12.36,12.36,0,0,0,10.08,5.18,12.65,12.65,0,0,0,10.4-4.44,2.19,2.19,0,0,1,.17.29A5,5,0,0,1,79.81,62a7.92,7.92,0,0,1-2.4,2.84A13.37,13.37,0,0,1,72,67.23a16.25,16.25,0,0,1-8.93-.39,9.59,9.59,0,0,1-3.91-2.36,5.44,5.44,0,0,1-1.63-3.38,4.91,4.91,0,0,1,.13-1.58A6.53,6.53,0,0,1,59.29,56.71Z"/><path class="cls-6" d="M59.88,23.58a10.63,10.63,0,0,0-2.72-4.3c.35-.94.69-1.89,1.06-2.82a50.53,50.53,0,0,1,3-6.61,15.22,15.22,0,0,1,1.91-2.8A9.69,9.69,0,0,1,64.37,6a1.51,1.51,0,0,1,1.31-.25.6.6,0,0,1,.51.39,8.36,8.36,0,0,1,.46,1.47A19.79,19.79,0,0,1,66.92,10a49.86,49.86,0,0,1-.25,6.58c0,.22-.16.32-.29.45-1.28,1.22-2.58,2.42-3.83,3.66-.84.83-1.6,1.73-2.4,2.6Z"/><path class="cls-7" d="M73.31,39.6c.16.14.33.27.48.42a8.17,8.17,0,0,1,2.4,5,8.72,8.72,0,0,1-6.48,9.23,8,8,0,0,1-9-3.73c-.08-.13-.14-.27-.23-.44l3.82-.27-.1-.25c.38-.05.74-.07,1.1-.14A8.8,8.8,0,0,0,69,47.81a10.72,10.72,0,0,0,4.13-6A8.24,8.24,0,0,0,73.31,39.6Z"/><path class="cls-7" d="M65.72,30.4c.22-.47.4-.91.61-1.33A6.94,6.94,0,0,1,68,26.82a5.57,5.57,0,0,1,3.23-1.3,8.47,8.47,0,0,1,2.56.19l.17.07s0,.09-.07.11a5.05,5.05,0,0,0-1.73,3.19c-.1.61-.12,1.23-.16,1.84,0,.23,0,.45,0,.72a7.45,7.45,0,0,1-2-1.46,17.23,17.23,0,0,1,.43,1.87,5.77,5.77,0,0,1,0,1.71A2.94,2.94,0,0,1,68,36.19c-.52.13-1.07.17-1.68.26-.08.12-.19.33-.32.51-.39.53-.77,1.07-1.2,1.57a3.17,3.17,0,0,1-.85.64,1.39,1.39,0,0,1-1.55-.07,3.94,3.94,0,0,1-1.62-2.16A11.64,11.64,0,0,1,60.3,34a6.48,6.48,0,0,1,.1-1.24,3,3,0,0,1,2.69-2.52A6.7,6.7,0,0,1,65.72,30.4Z"/><path class="cls-4" d="M84.54,39.63l-.43.24A7.91,7.91,0,0,1,81,40.92a1.92,1.92,0,0,1-1.69-.58,1.2,1.2,0,0,0-.34-.25,1.08,1.08,0,0,1-.51-1.5,4,4,0,0,1,.64-1,13.28,13.28,0,0,1,1.27-1.22,1.1,1.1,0,0,0,.36-.61c.17-.84.34-1.69.54-2.53a2.4,2.4,0,0,1,.3-.74c.27-.45.58-.86.87-1.29a.4.4,0,0,1,.35-.2,15.42,15.42,0,0,1,4,.66,5.13,5.13,0,0,1,1.67.87,2.42,2.42,0,0,1,.92,2c0,.85,0,1.7,0,2.55a8.55,8.55,0,0,1-.52,2.78,3.74,3.74,0,0,1-1,1.54A1.68,1.68,0,0,1,85.21,41a8.78,8.78,0,0,1-.57-1.15Z"/><path class="cls-8" d="M81.58,30.1C81,31,80.46,31.83,80,32.69a7.32,7.32,0,0,0-1,2.39.42.42,0,0,1-.31.35,4.17,4.17,0,0,1-3.27-.13,16.86,16.86,0,0,1-1.48-.87.6.6,0,0,1-.27-.42,13.76,13.76,0,0,1-.34-3.89,5.87,5.87,0,0,1,.43-1.93,3.23,3.23,0,0,1,1.45-1.64.45.45,0,0,1,.45,0,34.42,34.42,0,0,1,5.72,3.41Z"/><path class="cls-9" d="M31.54,57.63l.3-.24A2.6,2.6,0,0,0,33,55.2a4.69,4.69,0,0,0-.21-1.57c-.17-.61-.36-1.21-.49-1.83a1.33,1.33,0,0,1,.79-1.55,3,3,0,0,1,1.5-.3c.82,0,1.63.1,2.45.16l2.06.16.18,0a1.54,1.54,0,0,1-.39,1.35,2.9,2.9,0,0,1-1.35.62,5.6,5.6,0,0,1,.28.54,3,3,0,0,1,.27.8.9.9,0,0,1-.7,1.08,7.08,7.08,0,0,1-.8.16l-.57.08.26.31a10.41,10.41,0,0,1,.83.93,1.44,1.44,0,0,1-.22,2,3.4,3.4,0,0,1-2.1.88,4.81,4.81,0,0,1-2.5-.5A1.25,1.25,0,0,1,31.54,57.63Z"/><path class="cls-10" d="M31.93,49.78s0,0,0,.06a2.66,2.66,0,0,0-.5,2.67c.17.61.37,1.21.51,1.82a3.85,3.85,0,0,1,0,1.07,1.45,1.45,0,0,1-.71,1.17,2.27,2.27,0,0,0-.32.22,1,1,0,0,0-.37,1.14c.07.23.17.45.26.67-1.46-.35-2.76-2.46-2.7-4.33A4.5,4.5,0,0,1,31.93,49.78Z"/><path class="cls-11" d="M63.42,75.06a55.7,55.7,0,0,1-8.86,6.29,27.18,27.18,0,0,0,4.51-8A7.77,7.77,0,0,0,63.42,75.06Z"/><path class="cls-10" d="M48.18,30,49,33.08a27.61,27.61,0,0,1-3.79,2.67c-.3-.87-.51-1.74-.78-2.61Z"/><path class="cls-12" d="M49.88,32.33l-.79-3,3.24-2.82a.86.86,0,0,1,.05.15,6.4,6.4,0,0,1-.2,3.22,2.28,2.28,0,0,1-.65,1L50.24,32C50.14,32.12,50,32.2,49.88,32.33Z"/><path class="cls-13" d="M40.35,47a5.26,5.26,0,0,1,0,3.5l-.22-1.15a5.31,5.31,0,0,0-.74-.11A27.51,27.51,0,0,1,36.15,49c-.58-.06-1.17,0-1.76-.07l-.5,0C34.86,48.08,38.66,46.77,40.35,47Z"/><path class="cls-14" d="M43.59,33.88l.67,2.34a16.62,16.62,0,0,1-5.87,2C38.54,38,43,34.22,43.59,33.88Z"/><path class="cls-15" d="M41.5,16.77a1.65,1.65,0,1,1-1.65-1.63A1.62,1.62,0,0,1,41.5,16.77Z"/><path class="cls-16" d="M22.31,26.88l.86-.95.1.1-1,1.11Z"/><path class="cls-17" d="M39,52.87l.56-.38,0,0-.45.72Z"/><path class="cls-7" d="M25.41,74.33H22.63v2.52H20.07V70.94c.31-.08,26.68-.1,27.2,0l-.07,5.9H44.64c0-.82,0-1.65,0-2.51H36.05V85.58h3.2V89H28.73V85.58c1.12,0,2.24,0,3.39,0V74.31c-1.13,0-2.25,0-3.43,0V83H25.43V80.86c-.22,0-.31.12-.42.21A13.55,13.55,0,0,1,22.09,83,14.62,14.62,0,0,1,17,84.29a17.54,17.54,0,0,1-7.7-1.05A13.6,13.6,0,0,1,3.17,78.9a9.48,9.48,0,0,1,0-12,13.61,13.61,0,0,1,6.13-4.39,17.58,17.58,0,0,1,7.15-1.1,13.31,13.31,0,0,1,6.77,2c.67.43,1.28,1,1.91,1.46.16.12.3.26.52.44V61.5h3.25v6.69a2.19,2.19,0,0,1-.27,0H25.78a.58.58,0,0,1-.43-.14,11.76,11.76,0,0,0-3.88-2.27,13.4,13.4,0,0,0-5.87-1,11,11,0,0,0-7.47,3.28,6.37,6.37,0,0,0-1.87,5,6.45,6.45,0,0,0,1.59,3.79,9.27,9.27,0,0,0,3.87,2.72A12.68,12.68,0,0,0,22.59,79a8.62,8.62,0,0,0,2.61-2.16.77.77,0,0,0,.21-.58C25.4,75.63,25.41,75,25.41,74.33Z"/><path class="cls-18" d="M23.27,26l-.1-.1,1.22-1.11.07.07Z"/><path class="cls-19" d="M24.46,24.89l-.07-.07.49-.43.07.06A1.48,1.48,0,0,1,24.46,24.89Z"/></g></svg>