<svg xmlns="http://www.w3.org/2000/svg" width="30" height="30" viewBox="0 0 30 30"><defs><style>.cls-1{fill:#b8b8b8;fill-rule:evenodd;}.cls-2{fill:none;}</style></defs><title>github icon gray</title><g id="Level_1" data-name="Level 1"><path class="cls-1" d="M15,.37A15,15,0,0,0,10.26,29.6c.75.14,1-.32,1-.72s0-1.3,0-2.55c-4.17.91-5-2-5-2a4,4,0,0,0-1.67-2.2c-1.36-.93.11-.91.11-.91a3.15,3.15,0,0,1,2.29,1.55A3.21,3.21,0,0,0,11.31,24a3.21,3.21,0,0,1,.95-2c-3.33-.38-6.83-1.67-6.83-7.41a5.8,5.8,0,0,1,1.54-4,5.4,5.4,0,0,1,.15-4s1.26-.4,4.13,1.54A14.62,14.62,0,0,1,15,7.62a14.76,14.76,0,0,1,3.76.51c2.86-1.94,4.12-1.54,4.12-1.54a5.4,5.4,0,0,1,.15,4,5.8,5.8,0,0,1,1.54,4c0,5.76-3.51,7-6.85,7.4a3.57,3.57,0,0,1,1,2.78c0,2,0,3.62,0,4.11s.27.87,1,.72A15,15,0,0,0,15,.37Z"/><rect class="cls-2" width="30" height="30"/></g></svg>