<svg xmlns="http://www.w3.org/2000/svg" width="30" height="30" viewBox="0 0 30 30"><defs><style>.cls-1{fill:#fff;fill-rule:evenodd;}.cls-2{fill:none;}</style></defs><title>linkedin icon white</title><g id="Level_1" data-name="Level 1"><path class="cls-1" d="M6.42,0H23.58A6.41,6.41,0,0,1,30,6.42V23.58A6.43,6.43,0,0,1,23.58,30H6.42A6.41,6.41,0,0,1,0,23.58V6.42A6.41,6.41,0,0,1,6.42,0Zm1,7.45A2,2,0,0,0,5.32,9.36a2,2,0,0,0,2.15,1.9A2,2,0,0,0,9.6,9.36,2,2,0,0,0,7.47,7.45ZM5,24H9V13H5ZM18.94,13.1A4.9,4.9,0,0,0,15,15.21V13H11V24h4V16.88c0-1.09.4-2,1.88-2,2.46,0,1.87,2.17,2.12,2.17V25h4V18.2C23,14.86,22.26,13.1,18.94,13.1Z"/><rect class="cls-2" width="30" height="30"/></g></svg>