<svg xmlns="http://www.w3.org/2000/svg" width="30" height="30" viewBox="0 0 30 30"><defs><style>.cls-1{fill:#b8b8b8;fill-rule:evenodd;}.cls-2{fill:none;}</style></defs><title>linkedin icon gray</title><g id="Level_1" data-name="Level 1"><path class="cls-1" d="M6.42,0H23.58A6.41,6.41,0,0,1,30,6.46V23.54A6.41,6.41,0,0,1,23.58,30H6.42A6.42,6.42,0,0,1,0,23.54V6.46A6.42,6.42,0,0,1,6.42,0Zm1,7.41A2,2,0,0,0,5.32,9.36a2,2,0,0,0,2.15,1.9A2,2,0,0,0,9.6,9.36,2,2,0,0,0,7.47,7.45ZM5.62,24.34H9.37V13H5.62Zm13-12a4.6,4.6,0,0,0-3.75,2.11V12.9H11.36V24.28h3.52v-7.4c.1-1.09.52-2,2-2,2.46,0,1.87,2.17,1.87,2.17v7.15H22.5v-6.8C22.5,14.08,21.8,12.32,18.63,12.32Z"/><rect class="cls-2" width="30" height="30"/></g></svg>