<svg xmlns="http://www.w3.org/2000/svg" width="294.6" height="245.27" viewBox="0 0 294.6 245.27"><defs><style>.cls-1{fill:#009245;}.cls-2{fill:#231f20;}</style></defs><title>tree_branches</title><g id="scratch"><path class="cls-1" d="M151,80.35a19.07,19.07,0,0,1,14.25-5.75v7.61c-14,0-14.24,18.26-14.25,19h0v6.57c5.31-8.15,13.2-12.48,23.24-12.48V103c-9.28,0-15.9,4.83-19.67,14.37a47.33,47.33,0,0,0-3,14.2c11.12-.8,18.57-4.73,22.66-12,7.07-12.56,4.18-35.46-8.36-66.22a354.77,354.77,0,0,0-18.68-38.38A352.21,352.21,0,0,0,128.47,53.4C116,84.11,113.08,107,120.14,119.54c4.1,7.28,11.6,11.21,22.79,12C142.68,126,140.4,103,120.25,103V95.34c10,0,17.82,4.25,23.12,12.28v-6.37h0c0-.78-.25-19-14.25-19V74.6a19.07,19.07,0,0,1,14.25,5.75V40.15H151Z"/><path class="cls-1" d="M103.64,129.59c-3.88-13.87-22.09-28-52.65-40.88a354.53,354.53,0,0,0-40.43-14,345.22,345.22,0,0,0,15.81,44.7c9.92,22.43,25.73,49.18,44.72,49.18h0c6.12,0,12.47-2.84,18.91-8.43-4-3.69-22-18.42-36.25-4.17l-5.38-5.38c7.05-7,15.61-9.59,25-7.67l-4.51-4.5h0c-.55-.55-13.64-13.29-23.54-3.39L40,129.7a19.1,19.1,0,0,1,14.14-6L25.7,95.26l5.38-5.38,28.43,28.43a19,19,0,0,1,6-14.15l5.38,5.38c-10,10,2.83,23,3.38,23.53h0l4.65,4.65c-2-9.52.51-18.16,7.61-25.26l5.39,5.38c-14.25,14.24.46,32.17,4.16,36.24C103.4,145.66,105.89,137.61,103.64,129.59Z"/><path class="cls-1" d="M191,129.59c-2.24,8,.25,16.07,7.56,24.5,3.7-4.07,18.41-22,4.16-36.24l5.38-5.38c7.11,7.1,9.63,15.74,7.62,25.26l4.64-4.64h0c.54-.55,13.28-13.64,3.39-23.54l5.38-5.38a19.11,19.11,0,0,1,6,14.15l28.43-28.43,5.38,5.38-28.43,28.43a19.11,19.11,0,0,1,14.15,6l-5.38,5.38c-10-10-23,2.84-23.54,3.38h0L221.19,143c9.43-1.92,18,.62,25,7.67L240.84,156c-6.56-6.57-14.66-7.83-24.07-3.75a47.37,47.37,0,0,0-12.17,7.92c6.44,5.59,12.79,8.43,18.91,8.43,28.87,0,52.06-62.8,60.58-93.9a356.23,356.23,0,0,0-40.48,14C213,101.58,194.84,115.72,191,129.59Z"/><path class="cls-2" d="M288.51,65.67c-3.84.93-94.11,23.37-104.88,61.86-2.95,10.51.14,21.08,9.08,31.46L151,194V139.14c14.29-.8,24.36-6.09,29.86-15.88C200.45,88.43,152.48,8.73,150.43,5.35L147.18,0l-3.25,5.35c-2.05,3.38-50,83.08-30.42,117.91,5.5,9.79,15.57,15.08,29.86,15.88v54.67L101.89,159c8.94-10.38,12-21,9.08-31.46C100.19,89,9.92,66.6,6.08,65.67L0,64.18l1.49,6.09a348.26,348.26,0,0,0,17.88,52.16c15.77,35.7,33.17,53.8,51.72,53.8h0c8.55,0,17.11-4,25.49-11.75l46.79,39.27v41.52H151V204l47-39.47c8.38,7.77,16.94,11.75,25.49,11.75,18.55,0,35.95-18.1,51.72-53.8a350.5,350.5,0,0,0,17.88-52.16l1.49-6.09Zm-68.19,67.41h0ZM120.14,119.54C113.08,107,116,84.11,128.47,53.4a352.21,352.21,0,0,1,18.71-38.47,354.77,354.77,0,0,1,18.68,38.38c12.54,30.76,15.43,53.66,8.36,66.22-4.09,7.26-11.54,11.19-22.66,12a47.33,47.33,0,0,1,3-14.2C158.33,107.78,165,103,174.23,103V95.34c-10,0-17.93,4.33-23.24,12.48v-6.57h0c0-.78.25-19,14.25-19V74.6A19.07,19.07,0,0,0,151,80.35V40.15h-7.62v40.2a19.07,19.07,0,0,0-14.25-5.75v7.61c14,0,14.25,18.26,14.25,19h0v6.37c-5.3-8-13.15-12.28-23.12-12.28V103c20.15,0,22.43,23.09,22.68,28.57C131.74,130.75,124.24,126.82,120.14,119.54Zm-49,49.08c-19,0-34.8-26.75-44.72-49.18a345.22,345.22,0,0,1-15.81-44.7A354.53,354.53,0,0,1,51,88.71c30.56,12.87,48.77,27,52.65,40.88,2.25,8-.24,16.07-7.55,24.5-3.7-4.07-18.41-22-4.16-36.24l-5.39-5.38c-7.1,7.1-9.62,15.74-7.61,25.26l-4.65-4.65h0c-.55-.55-13.34-13.57-3.38-23.53l-5.38-5.38a19,19,0,0,0-6,14.15L31.08,89.88,25.7,95.26l28.42,28.43a19.1,19.1,0,0,0-14.14,6l5.38,5.38c9.9-9.9,23,2.84,23.54,3.39h0l4.51,4.5c-9.43-1.92-18,.62-25,7.67L53.75,156C68,141.77,86,156.5,90,160.19c-6.44,5.59-12.79,8.43-18.91,8.43Zm152.42,0c-6.12,0-12.47-2.84-18.91-8.43a47.37,47.37,0,0,1,12.17-7.92c9.41-4.08,17.51-2.82,24.07,3.75l5.38-5.38c-7-7-15.6-9.59-25-7.67l4.51-4.51h0c.55-.54,13.58-13.34,23.54-3.38l5.38-5.38a19.11,19.11,0,0,0-14.15-6L268.9,95.26l-5.38-5.38-28.43,28.43a19.11,19.11,0,0,0-6-14.15l-5.38,5.38c9.89,9.9-2.85,23-3.39,23.54h0l-4.64,4.64c2-9.52-.51-18.16-7.62-25.26l-5.38,5.38c14.25,14.24-.46,32.17-4.16,36.24-7.31-8.43-9.8-16.48-7.56-24.5,3.89-13.87,22.09-28,52.66-40.88a356.23,356.23,0,0,1,40.48-14C275.57,105.82,252.38,168.62,223.51,168.62Z"/></g></svg>