<svg xmlns="http://www.w3.org/2000/svg" width="30" height="30" viewBox="0 0 30 30"><defs><style>.cls-1{fill:#fff;}.cls-2{fill:none;}</style></defs><title>twitter icon white</title><g id="Level_1" data-name="Level 1"><path class="cls-1" d="M.75,12.92c0,3,2.56,4.5,5.37,5.07a3.88,3.88,0,0,1-2.65.45c.78,2.44,3,3.28,5.67,3.32a12.12,12.12,0,0,1-7.68,2.17A11.8,11.8,0,0,1,0,23.84c2.71,1.74,5.94,3.46,9.4,3.46,11.29,0,16.76-8.38,16.76-16.49,0-.27,0-.53,0-.79A16.53,16.53,0,0,0,30,6.72c-1.1.49-2.38,0-3.62.18,1.26-.76,2.79-1.72,3-3.95a15.2,15.2,0,0,1-4.19,1.93A6.32,6.32,0,0,0,20.7,2.7c-3.39,0-5.63,3.15-5.63,6.54a4.48,4.48,0,0,0,.1,1.22C10.07,10.2,4.66,8.53,1.63,4.82A6.09,6.09,0,0,0,.8,7.9c0,2.13,1.63,4,3.28,5.11C3.07,13,3.27,13.62.75,12.92Z"/><rect class="cls-2" width="30" height="30"/></g></svg>