<svg xmlns="http://www.w3.org/2000/svg" xmlns:xlink="http://www.w3.org/1999/xlink" width="120" height="120" viewBox="0 0 120 120"><defs><style>.cls-1{fill:url(#linear-gradient);}.cls-2{isolation:isolate;}.cls-3,.cls-6{fill:#fff;}.cls-4{mask:url(#mask);}.cls-5,.cls-6{opacity:0.6;}.cls-6{mix-blend-mode:multiply;}.cls-7{fill:none;}</style><linearGradient id="linear-gradient" x1="60" y1="106.82" x2="60" y2="41.17" gradientUnits="userSpaceOnUse"><stop offset="0" stop-color="#231f20"/><stop offset="1" stop-color="#fff"/></linearGradient><mask id="mask" x="22.54" y="63.36" width="74.93" height="55.99" maskUnits="userSpaceOnUse"><rect class="cls-1" x="22.54" y="63.36" width="74.93" height="55.99"/></mask></defs><title>world_with_reflection_icon</title><g class="cls-2"><g id="scratch"><path class="cls-3" d="M79.16,15.74a.48.48,0,0,0-.36-.16.56.56,0,0,0-.5.35.5.5,0,0,0,.11.55,25.45,25.45,0,0,1,0,36,.5.5,0,0,0-.11.55.56.56,0,0,0,.5.35.48.48,0,0,0,.36-.16,26.53,26.53,0,0,0,0-37.5Z"/><path class="cls-3" d="M47.37,58.09A26.44,26.44,0,0,0,58,61c.46,0,1.61.31,2-.11a.56.56,0,0,0,0-.71c-.24-.29-.81-.17-1.14-.19a25.3,25.3,0,0,1-4.67-.6,26.08,26.08,0,0,1-15.3-10.06,25.43,25.43,0,0,1-4.3-19.25,26.32,26.32,0,0,1,3.88-9.84A22.52,22.52,0,0,1,40,18.14c.26-.31.52-.64.79-.95s.81-.59.94-.93a.55.55,0,0,0-.48-.73c-.35,0-.69.38-.91.6a19.15,19.15,0,0,0-1.77,2.14,27.21,27.21,0,0,0-5,21.46A26.82,26.82,0,0,0,45.4,56.94c.64.41,1.3.79,2,1.15Zm12.21,2.82Z"/><path class="cls-3" d="M78.37,12.54A28.84,28.84,0,0,0,59.19,5.89,24.9,24.9,0,0,0,48.67,8.2c-.7.35-1.39.72-2.08,1.07-.24.12-.64.26-.71.54-.23,1,1.3.45,1.72.45a2.85,2.85,0,0,1,1.58.58A6.22,6.22,0,0,0,51,11.4a15.93,15.93,0,0,0,4,.23c1-.06,2.54-.43,2.82-1.55s1.78-1.51,2.81-1.9c-.37.5-.92.84-1.28,1.35-.51.72,0,1.16.78,1.16a17.88,17.88,0,0,1,2.43-.26,8.7,8.7,0,0,1,2.85.9c-1-.1-2-.55-3-.61a9.77,9.77,0,0,0-2.75.26c-1,.24-4.85,1.66-3.05,3.11a11.13,11.13,0,0,0,2.71,1.42,27.12,27.12,0,0,0,2.77,1c.67.19,1.84.39,2.06-.52a5.84,5.84,0,0,0-.43-2.43c2.94-.07,5.61,1.28,8.1,2.67a10.07,10.07,0,0,0-2.91,1.51c-1.16,1.2,1.84,1.38,2.43,1.57-.67.21-1.4.14-2.06.37-.83.3-1,1.17-1.71,1.65-.32.23-.72.28-1,.52a2.64,2.64,0,0,0-.69.83c-.22.4-.34.84-.56,1.24s-.52.82-.71,1.26a4.06,4.06,0,0,0,1,4.25,10.09,10.09,0,0,0,4.16,2.84c.57.17,1.91.31,2.12,1,.11.35-.47.3-.64.25a3.44,3.44,0,0,1-1.2-.66,5.84,5.84,0,0,0-.81-.68,4.33,4.33,0,0,0-1-.32c-.43-.13-.86-.23-1.29-.33s-1-.09-1.2-.42a14.28,14.28,0,0,0-1.66-1.82,13.41,13.41,0,0,0-1.85-1.84,4.49,4.49,0,0,0-2-.73,2.43,2.43,0,0,0-1.07.13,3.29,3.29,0,0,1-1.43.12c-1.3-.11-2.39-.07-3.3,1a3.2,3.2,0,0,0-.55,3.7c1.27,1.89,4.74,1.1,6.47.47-.35.63-1.25,1.93-.36,2.51.46.31,1.11.14,1.53.51s.43,1.2.63,1.76a23.22,23.22,0,0,0-3.43-1.87q-.93-.46-1.89-.87A4.1,4.1,0,0,0,54.58,34c-1.35.11-2-.72-2.84-1.69-1-1.12-1.83-2.31-2.68-3.51a8.65,8.65,0,0,0-2-2.49c-.79-.5-2.24,0-1.59,1.08L46.42,29c.18.3.78,1,.72,1.4a6.58,6.58,0,0,1-1.2-1.66c-.5-.85-.95-1.73-1.44-2.59a10.47,10.47,0,0,0-.68-1.05,4.23,4.23,0,0,1-.73-.9,3,3,0,0,1,0-2.3c.31-.61,1-.9,1.41-1.4a2.1,2.1,0,0,0,.53-2,1.12,1.12,0,0,0-.61-.6c-.15-.07-.51-.05-.51-.24,0-1,.4-1.8.2-2.77-.33-1.58-2.22-2-3.51-1.32-1.45.74-2.5,2.32-3.45,3.59a28.53,28.53,0,0,0-4.52,9,29,29,0,0,0,1,19.59A29.22,29.22,0,0,0,46.22,59.57a28.2,28.2,0,0,0,10.39,3.32c.89.11,1.79.17,2.7.2a3.22,3.22,0,0,0,.82,0c.4-.1.81-.62,1.1-.89a8.79,8.79,0,0,0,1.72-2,22.34,22.34,0,0,1,1.41-2.53A16.82,16.82,0,0,1,66,55.78,5.59,5.59,0,0,0,67.41,54c.64-1.64-.33-3-1.32-4.2a5.46,5.46,0,0,1-1.38-4.48,2.33,2.33,0,0,1,.37-1c.24-.31.62-.48.87-.78a5.5,5.5,0,0,0,1-2.15,1.75,1.75,0,0,0-.9-2.25,24.06,24.06,0,0,1-3-1,4.6,4.6,0,0,0,4.57-.6c.25-.16.5-.34.77-.48.21.25.1.68.08,1-.05.76.61,1.56,1.31.84a3,3,0,0,0,.44-1c.13-.33.52-.26.83-.27a4.25,4.25,0,0,1,2.35.44c.71.42,1.12,1.2,1.84,1.58s1.36.37,1.8.9c.94,1.12-.24,3.44,1.57,3.78a2.4,2.4,0,0,1,1.58,1.37,1.79,1.79,0,0,1-.73,2.1,9.31,9.31,0,0,0-2.78,3.42,3.47,3.47,0,0,1-1.17,1.81c-.81.55-1.67,1.06-2.51,1.58-1.71,1.06-3.46,2-5.16,3.13-1.44.91-2.73,2-4.07,3.08A16.74,16.74,0,0,0,62.14,62c-.24.23-.42.56-.17.86s.53.2.79.2a15.11,15.11,0,0,0,4.57-.73A31.49,31.49,0,0,0,77,57.59a28.53,28.53,0,0,0,7-7.52,28.54,28.54,0,0,0-5.42-37.4l-.15-.13ZM65,61.13A34.54,34.54,0,0,1,69.44,58c1.67-1,3.29-2,4.9-3,1.09-.7,2.62-1.37,3.09-2.67a8.23,8.23,0,0,1,1-2.06,16.14,16.14,0,0,1,2-1.92,2.8,2.8,0,0,0,.24-4,3.33,3.33,0,0,0-.87-.76c-.3-.17-.68-.19-1-.39s-.2-.64-.21-.93A8.23,8.23,0,0,0,78.46,41a2.53,2.53,0,0,0-1.31-1.82c-.38-.18-.79-.26-1.18-.41s-.72-.62-1-.94a5.46,5.46,0,0,0-4.45-1.24,1.15,1.15,0,0,0-.94.47,1.2,1.2,0,0,0-.81-1c-.54-.12-1.06.31-1.5.56a4.13,4.13,0,0,1-3.23.75,1.33,1.33,0,0,1-1.06-.9c-.1-.36-.15-.73-.28-1.09-.37-1-1.12-1.26-2.1-1.49.18-.8,1-1.41.91-2.29s-1.39-.41-2-.25c-1.31.38-3.47.93-4.69,0s.32-3.2,1.51-3.3c.69-.06,1.38.11,2.08.09a3.74,3.74,0,0,0,1.14-.28,1.93,1.93,0,0,1,1.29.2,4.5,4.5,0,0,1,1.78,1.36c.53.68,1.25,1.2,1.76,1.89a6.73,6.73,0,0,0,.68.91,1.7,1.7,0,0,0,.93.29,10,10,0,0,1,2.3.54,8.06,8.06,0,0,1,1.29,1,2.86,2.86,0,0,0,2.26.62,1.31,1.31,0,0,0,1-1.56,2.51,2.51,0,0,0-1.63-1.38,12.59,12.59,0,0,1-2.88-1.16A10.77,10.77,0,0,1,66,28.43a2.89,2.89,0,0,1-.41-3c.2-.45.46-.87.66-1.32A3.55,3.55,0,0,1,67,22.75c.34-.26.78-.33,1.13-.58a3.37,3.37,0,0,0,.88-1c.51-.8,1.49-.6,2.31-.8s1.7-1.08.78-1.74a4.89,4.89,0,0,0-2-.62A11.65,11.65,0,0,0,72.58,17c1-.75-.06-1.55-.81-1.9-1-.47-1.91-1-2.89-1.45a14,14,0,0,0-3.54-.94c-.7-.1-2.22-.48-2.65.34a1.66,1.66,0,0,0,0,1.22c0,.12.35,1.41.33,1.41-.18.12-1.05-.25-1.24-.31-.59-.18-1.16-.39-1.72-.62a12.82,12.82,0,0,1-2.89-1.45A7.46,7.46,0,0,1,63.43,12c.92.22,2.28.77,3.19.27,1.16-.65-.42-1.64-1-1.92,2,.73,3.32,2.78,5.4,3.21.54.12,1-.15,1-.76s-.72-1.2-1.17-1.61c-.62-.59-1.23-1.21-1.88-1.78a5.83,5.83,0,0,0-1.91-1.54A27.73,27.73,0,0,1,87.48,36a28.32,28.32,0,0,1-6.81,16.72,27,27,0,0,1-7.58,6,25.81,25.81,0,0,1-9,3.1c.32-.23.63-.48.94-.73Zm3.8-50.5c.53.48,1,1,1.52,1.5-1-.58-1.84-1.43-2.83-2.08a12.66,12.66,0,0,0-3.72-1.44,4,4,0,0,1,3.83.85l-.32-.18a17.19,17.19,0,0,1,1.78,1.84ZM49.11,9.15a22.38,22.38,0,0,1,7.45-2A27.85,27.85,0,0,1,65,7.37a5.44,5.44,0,0,0-2.48.57c-.77.46-.43,1.21.29,1.48a6.35,6.35,0,0,0-2.13.12,2.32,2.32,0,0,0,1-1.79c-.06-.78-.87-.78-1.45-.58a16.34,16.34,0,0,0-2.19,1A2.2,2.2,0,0,0,56.78,9.6c-.26,1.27-2.58,1-3.49,1a15.6,15.6,0,0,1-2.45-.29,17.35,17.35,0,0,1-2.16-.93Zm-15,15.76a27.28,27.28,0,0,1,5.27-8.86,6.89,6.89,0,0,1,1.76-1.65c.7-.34,1.57-.29,1.85.53a4.36,4.36,0,0,1-.1,2.15A2,2,0,0,0,43,18.16c.17.41.5.46.87.59.66.25-.17,1.09-.44,1.33A3.74,3.74,0,0,0,42,21.71a4,4,0,0,0-.13,2,3.72,3.72,0,0,0,1.12,2,9.18,9.18,0,0,1,1.08,1.78c.47.85.92,1.71,1.45,2.52.36.56.87,1.46,1.64,1.46a1.09,1.09,0,0,0,1-1.29c-.06-1-.94-1.94-1.44-2.79a47.17,47.17,0,0,1,3,4c.91,1.19,2,3.09,3.56,3.54a15.27,15.27,0,0,0,2.44.06,8.58,8.58,0,0,1,2.58,1.08c.76.39,1.52.8,2.26,1.24a9.51,9.51,0,0,1,1,.59c.32.25.48.65.83.9a8.39,8.39,0,0,0,2.23.92c.56.18,1.48.12,1.46.9a3.58,3.58,0,0,1-.8,2.05c-.53.6-1.14,1-1.39,1.78a6.44,6.44,0,0,0,.64,4.91c.71,1.27,2.6,2.48,2,4.18a4.57,4.57,0,0,1-1.29,1.58,16.85,16.85,0,0,0-1.89,2.24,16.66,16.66,0,0,0-1.1,2.09,8,8,0,0,1-1.83,2.1,1.3,1.3,0,0,1-1.13.46L58.06,62q-1.26-.09-2.49-.3a27.47,27.47,0,0,1-4.64-1.19A27.82,27.82,0,0,1,36.28,48.57a28.16,28.16,0,0,1-2.16-23.66Z"/><g class="cls-4"><g class="cls-5"><path class="cls-3" d="M79.16,105.82a.53.53,0,0,1-.36.13.58.58,0,0,1-.5-.29.37.37,0,0,1,.11-.46,19.14,19.14,0,0,0,0-30.34.37.37,0,0,1-.11-.46.58.58,0,0,1,.5-.29.53.53,0,0,1,.36.13A20.82,20.82,0,0,1,86.92,90C87,95.84,84.13,101.59,79.16,105.82Z"/><path class="cls-3" d="M47.37,70.16c-.67.3-1.33.62-2,1-6,3.26-10.46,8.55-11.84,14.49a20.21,20.21,0,0,0,5,18.08,17.67,17.67,0,0,0,1.77,1.8,1.61,1.61,0,0,0,.91.5c.35,0,.61-.34.48-.61s-.69-.54-.94-.78l-.79-.81A19.47,19.47,0,0,1,38.43,102a20.27,20.27,0,0,1-3.88-8.29,18.82,18.82,0,0,1,4.3-16.21,26.87,26.87,0,0,1,15.3-8.47,30.33,30.33,0,0,1,4.67-.51c.33,0,.9.09,1.14-.15a.43.43,0,0,0,0-.61c-.36-.34-1.51-.11-2-.09a30.48,30.48,0,0,0-10.62,2.46Zm12.21-2.38Z"/><path class="cls-3" d="M78.37,108.51l.15-.11a23.93,23.93,0,0,0,9.66-14.2,21.2,21.2,0,0,0-4.24-17.29,26,26,0,0,0-7-6.33,34.47,34.47,0,0,0-9.64-4A18,18,0,0,0,62.76,66c-.26,0-.6,0-.79.17s-.07.53.17.72a15.65,15.65,0,0,0,1.7,1c1.34.88,2.63,1.83,4.07,2.6,1.7.9,3.45,1.74,5.16,2.63.84.44,1.7.87,2.51,1.33A3,3,0,0,1,76.75,76a8.13,8.13,0,0,0,2.78,2.88c.63.47,1.09,1.06.73,1.78a2.33,2.33,0,0,1-1.58,1.15c-1.81.28-.63,2.24-1.57,3.18-.44.45-1.22.49-1.8.76s-1.13,1-1.84,1.33a4.94,4.94,0,0,1-2.35.37c-.31,0-.7.05-.83-.23s-.17-.61-.44-.85c-.7-.61-1.36.07-1.31.71,0,.24.13.61-.08.82-.27-.12-.52-.27-.77-.41a5.29,5.29,0,0,0-4.57-.5,27.14,27.14,0,0,1,3-.86,1.41,1.41,0,0,0,.9-1.9,4.36,4.36,0,0,0-1-1.8c-.25-.26-.63-.4-.87-.67a1.75,1.75,0,0,1-.37-.85,4.16,4.16,0,0,1,1.38-3.78c1-1,2-2.15,1.32-3.53A4.93,4.93,0,0,0,66,72.1a15.83,15.83,0,0,1-1.67-1.6A19.13,19.13,0,0,1,63,68.37a8,8,0,0,0-1.72-1.66,3.39,3.39,0,0,0-1.1-.76,3.75,3.75,0,0,0-.82,0c-.91,0-1.81.07-2.7.16a32.24,32.24,0,0,0-10.39,2.8A26.74,26.74,0,0,0,33.66,80.56a20.86,20.86,0,0,0-1,16.5,22.76,22.76,0,0,0,4.52,7.61,10.5,10.5,0,0,0,3.45,3c1.29.55,3.18.23,3.51-1.11.2-.81-.21-1.53-.2-2.33,0-.16.36-.14.51-.2a1,1,0,0,0,.61-.51,1.59,1.59,0,0,0-.53-1.71c-.43-.42-1.1-.66-1.41-1.17a2.17,2.17,0,0,1,0-1.94c.16-.32.49-.49.73-.76a8.37,8.37,0,0,0,.68-.89c.49-.72.94-1.46,1.44-2.17a5.68,5.68,0,0,1,1.2-1.4c.06.32-.54.92-.72,1.18L45.48,96c-.65.92.8,1.33,1.59.91a7.64,7.64,0,0,0,2-2.1c.85-1,1.73-2,2.68-3s1.49-1.52,2.84-1.42a4.84,4.84,0,0,0,2.11-.21c.64-.22,1.27-.47,1.89-.73A24.83,24.83,0,0,0,62,88c-.2.47-.15,1.12-.63,1.48s-1.07.17-1.53.43c-.89.49,0,1.58.36,2.11-1.73-.53-5.2-1.19-6.47.4a2.37,2.37,0,0,0,.55,3.11,3.89,3.89,0,0,0,3.3.84,3.82,3.82,0,0,1,1.43.1,3,3,0,0,0,1.07.11,5,5,0,0,0,2-.62,11.6,11.6,0,0,0,1.85-1.55,12.76,12.76,0,0,0,1.66-1.53c.25-.28.81-.27,1.2-.35s.86-.17,1.29-.28a5.45,5.45,0,0,0,1-.27,5.88,5.88,0,0,0,.81-.57,3.78,3.78,0,0,1,1.2-.56c.17,0,.75-.08.64.21-.21.58-1.55.7-2.12.84a10.21,10.21,0,0,0-4.16,2.4,3,3,0,0,0-1,3.57,12.39,12.39,0,0,0,.71,1.07c.22.33.34.7.56,1a2.42,2.42,0,0,0,.69.7c.31.2.71.25,1,.43.67.41.88,1.15,1.71,1.39.66.2,1.39.14,2.06.32-.59.16-3.59.31-2.43,1.32a10.89,10.89,0,0,0,2.91,1.27c-2.49,1.17-5.16,2.31-8.1,2.25.16-.65.62-1.37.43-2s-1.39-.6-2.06-.44a28.73,28.73,0,0,0-2.77.87,12,12,0,0,0-2.71,1.2c-1.8,1.22,2,2.41,3.05,2.62a11.48,11.48,0,0,0,2.75.21c1,0,2-.43,3-.51a10.17,10.17,0,0,1-2.85.76,21.72,21.72,0,0,1-2.43-.22c-.75,0-1.29.37-.78,1,.36.43.91.71,1.28,1.13-1-.32-2.51-.61-2.81-1.6s-1.85-1.25-2.82-1.3a19.41,19.41,0,0,0-4,.19,6.76,6.76,0,0,0-1.79.48,3.29,3.29,0,0,1-1.58.48c-.42,0-2-.49-1.72.38.07.24.47.35.71.45l2.08.91a28.84,28.84,0,0,0,10.52,1.94,32.36,32.36,0,0,0,19.18-5.6ZM65,67.6c-.31-.21-.62-.42-.94-.62a29.55,29.55,0,0,1,9,2.61,26.67,26.67,0,0,1,7.58,5.06,22,22,0,0,1,6.81,14.08c.79,10.84-7.93,21-20.41,23.75a5.88,5.88,0,0,0,1.91-1.3c.65-.48,1.26-1,1.88-1.49.45-.36,1.11-.81,1.17-1.36s-.45-.74-1-.65c-2.08.37-3.44,2.1-5.4,2.71.56-.24,2.14-1.07,1-1.61-.91-.43-2.27,0-3.19.22a8.56,8.56,0,0,1-6.25-1.12,14.55,14.55,0,0,1,2.89-1.21c.56-.2,1.13-.37,1.72-.52.19-.05,1.06-.37,1.24-.26,0,0-.3,1.08-.33,1.18a1.2,1.2,0,0,0,0,1c.43.69,2,.37,2.65.28a15.66,15.66,0,0,0,3.54-.79c1-.36,1.92-.82,2.89-1.21.75-.3,1.81-1,.81-1.61a13.7,13.7,0,0,0-2.42-.9,5.47,5.47,0,0,0,2-.52c.92-.55,0-1.31-.78-1.47s-1.8,0-2.31-.67a3.11,3.11,0,0,0-.88-.81c-.35-.21-.79-.27-1.13-.49a2.85,2.85,0,0,1-.81-1.14c-.2-.38-.46-.74-.66-1.12A2.13,2.13,0,0,1,66,95.13a10.28,10.28,0,0,1,2.35-1.73,13.58,13.58,0,0,1,2.88-1c.65-.21,1.42-.57,1.63-1.17s-.33-1.16-1-1.31a3.25,3.25,0,0,0-2.26.53,7.78,7.78,0,0,1-1.29.81,11,11,0,0,1-2.3.46,2,2,0,0,0-.93.24,6.15,6.15,0,0,0-.68.77c-.51.58-1.23,1-1.76,1.59a4.51,4.51,0,0,1-1.78,1.14,2.2,2.2,0,0,1-1.29.17,4.81,4.81,0,0,0-1.14-.23c-.7,0-1.39.12-2.08.07-1.19-.08-2.75-2-1.51-2.77s3.38-.3,4.69,0c.57.14,1.84.64,2-.21s-.73-1.25-.91-1.93c1-.19,1.73-.39,2.1-1.26.13-.29.18-.61.28-.91.16-.45.55-.63,1.06-.76a4.77,4.77,0,0,1,3.23.63,2.52,2.52,0,0,0,1.5.47,1.06,1.06,0,0,0,.81-.87,1.25,1.25,0,0,0,.94.41,6.23,6.23,0,0,0,4.45-1.06c.33-.26.59-.65,1-.79s.8-.19,1.18-.34a2.19,2.19,0,0,0,1.31-1.53,5.94,5.94,0,0,0,.16-1.11c0-.24-.06-.61.21-.77s.67-.19,1-.34a3.29,3.29,0,0,0,.87-.63,2.11,2.11,0,0,0-.24-3.35,14.88,14.88,0,0,1-2-1.63,6.4,6.4,0,0,1-1-1.73c-.47-1.09-2-1.66-3.09-2.25-1.61-.87-3.23-1.72-4.9-2.52A34.29,34.29,0,0,1,65,67.6Zm4.06,42.11a16.62,16.62,0,0,1-1.78,1.55l.32-.16a4.59,4.59,0,0,1-3.83.72,14.11,14.11,0,0,0,3.72-1.21c1-.55,1.78-1.27,2.83-1.75-.48.44-1,.86-1.52,1.26Zm-20.4,1.47a18.4,18.4,0,0,1,2.16-.78,18.31,18.31,0,0,1,2.45-.24c.91,0,3.23-.24,3.49.83a2,2,0,0,0,1.29,1.24,20.46,20.46,0,0,0,2.19.81c.58.16,1.39.16,1.45-.49s-.51-1.12-1-1.52a7.23,7.23,0,0,0,2.13.11c-.72.22-1.06.86-.29,1.25a6.26,6.26,0,0,0,2.48.47,32.3,32.3,0,0,1-8.45.22,25.84,25.84,0,0,1-7.45-1.71ZM34.12,98.1a20.45,20.45,0,0,1,2.16-19.93,27.43,27.43,0,0,1,14.65-10,32.72,32.72,0,0,1,4.64-1c.82-.12,1.65-.2,2.49-.25.39,0,.77,0,1.16-.06a1.4,1.4,0,0,1,1.13.39A7.35,7.35,0,0,1,62.18,69a13.46,13.46,0,0,0,1.1,1.75,14.67,14.67,0,0,0,1.89,1.89A4.18,4.18,0,0,1,66.46,74c.62,1.43-1.27,2.45-2,3.52a4.69,4.69,0,0,0-.64,4.14c.25.68.86,1,1.39,1.5a2.73,2.73,0,0,1,.8,1.72c0,.66-.9.61-1.46.76a8.8,8.8,0,0,0-2.23.78c-.35.2-.51.54-.83.75s-.64.34-1,.5c-.74.37-1.5.71-2.26,1a9.32,9.32,0,0,1-2.58.91,19.84,19.84,0,0,0-2.44,0c-1.54.38-2.65,2-3.56,3a42.86,42.86,0,0,1-3,3.36c.5-.72,1.38-1.51,1.44-2.35a1,1,0,0,0-1-1.08c-.77,0-1.28.75-1.64,1.22-.53.69-1,1.41-1.45,2.13A7.81,7.81,0,0,1,43,97.4a3,3,0,0,0-1.12,1.67,2.89,2.89,0,0,0,.13,1.72,3.43,3.43,0,0,0,1.37,1.38c.27.19,1.1.9.44,1.11-.37.12-.7.16-.87.5a1.39,1.39,0,0,0-.05.9,3.15,3.15,0,0,1,.1,1.82c-.28.69-1.15.73-1.85.44a6.45,6.45,0,0,1-1.76-1.38,22.69,22.69,0,0,1-5.27-7.46C31,90.93,35.52,101.34,34.12,98.1Z"/></g></g><ellipse class="cls-6" cx="60" cy="65.2" rx="27.43" ry="2.72"/><rect class="cls-7" width="120" height="120"/></g></g></svg>